<svg width="27" height="26" viewBox="0 0 27 26" fill="none" xmlns="http://www.w3.org/2000/svg">
<path d="M12.2212 0.557431C12.588 -0.185814 13.6478 -0.185812 14.0147 0.557433L17.2936 7.20138C17.4393 7.49652 17.7209 7.70109 18.0466 7.74842L25.3786 8.81383C26.1988 8.93301 26.5263 9.94098 25.9328 10.5195L20.6273 15.6911C20.3916 15.9208 20.2841 16.2518 20.3397 16.5762L21.5922 23.8786C21.7323 24.6955 20.8749 25.3185 20.1412 24.9328L13.5833 21.4851C13.2919 21.3319 12.9439 21.3319 12.6526 21.4851L6.09462 24.9328C5.36099 25.3185 4.50355 24.6955 4.64366 23.8786L5.89612 16.5762C5.95176 16.2518 5.84421 15.9208 5.60853 15.6911L0.303023 10.5195C-0.290494 9.94098 0.0370144 8.93301 0.857235 8.81383L8.18926 7.74842C8.51497 7.70109 8.79654 7.49652 8.9422 7.20138L12.2212 0.557431Z" fill="#FCC141"/>
</svg>
