<svg width="30" height="30" viewBox="0 0 30 30" fill="none" xmlns="http://www.w3.org/2000/svg">
<path d="M18.2793 8.90332C18.5706 9.49361 19.1337 9.90339 19.7852 9.99805L27.1172 11.0625L21.8115 16.2344C21.3401 16.6938 21.125 17.3561 21.2363 18.0049L22.4883 25.3076L15.9307 21.8594C15.3481 21.5531 14.6519 21.5531 14.0693 21.8594L7.51172 25.3076L8.76367 18.0049C8.87495 17.3561 8.65985 16.6939 8.18848 16.2344L2.88281 11.0625L10.2148 9.99805C10.8663 9.90339 11.4294 9.49361 11.7207 8.90332L15 2.25977L18.2793 8.90332Z" stroke="#FCC141" stroke-width="2"/>
<mask id="mask0_1_600" style="mask-type:alpha" maskUnits="userSpaceOnUse" x="1" y="1" width="28" height="26">
<path d="M14.1033 1.81698C14.4701 1.07374 15.5299 1.07374 15.8967 1.81699L19.1757 8.46093C19.3214 8.75607 19.6029 8.96064 19.9287 9.00797L27.2607 10.0734C28.0809 10.1926 28.4084 11.2005 27.8149 11.7791L22.5094 16.9507C22.2737 17.1804 22.1662 17.5114 22.2218 17.8358L23.4743 25.1382C23.6144 25.9551 22.7569 26.5781 22.0233 26.1924L15.4653 22.7446C15.174 22.5915 14.826 22.5915 14.5347 22.7446L7.9767 26.1924C7.24307 26.5781 6.38563 25.9551 6.52574 25.1382L7.7782 17.8358C7.83384 17.5114 7.72629 17.1804 7.49061 16.9507L2.1851 11.7791C1.59159 11.2005 1.91909 10.1926 2.73931 10.0734L10.0713 9.00797C10.3971 8.96064 10.6786 8.75607 10.8243 8.46093L14.1033 1.81698Z" fill="#FCC141"/>
</mask>
<g mask="url(#mask0_1_600)">
<rect width="15" height="30" fill="#FCC141"/>
</g>
</svg>
